<?xml version="1.0" encoding="utf-8"?>
<!-- Generator: Adobe Illustrator 16.0.0, SVG Export Plug-In . SVG Version: 6.00 Build 0)  -->
<!DOCTYPE svg PUBLIC "-//W3C//DTD SVG 1.0//EN" "http://www.w3.org/TR/2001/REC-SVG-20010904/DTD/svg10.dtd">
<svg version="1.0" id="Layer_1" xmlns="http://www.w3.org/2000/svg" xmlns:xlink="http://www.w3.org/1999/xlink" x="0px" y="0px"
	 width="100px" height="100px" viewBox="0 0 100 100" enable-background="new 0 0 100 100" xml:space="preserve">

<style type="text/css">
	.cc{fill:#80CBC4;stroke:#0277BD;}
	.c1{fill:#81D4FA;stroke:#0277BD;}
	.c2{fill:#FFA726;stroke:#FFCC80;}
</style>
<path class="cc" d="M46.667,10c-11.042,0-20,8.952-20,20c0,5.521,2.236,10.521,5.859,14.147l14.141,12.52l14.144-12.526
	c3.623-3.62,5.859-8.62,5.856-14.141C66.667,18.958,57.715,10,46.667,10z M46.667,38.333c-4.604,0-8.334-3.73-8.334-8.333
	c0-4.597,3.73-8.333,8.334-8.333c4.603,0,8.33,3.736,8.33,8.333C54.997,34.603,51.27,38.333,46.667,38.333z"/>
<path class="c2" d="M90,16.667c0,3.678-2.985,6.666-6.667,6.666s-6.666-2.988-6.666-6.666c0-3.686,2.984-6.667,6.666-6.667S90,12.981,90,16.667
	z"/>
<path  class="c2" d="M23.333,83.333c0,3.679-2.984,6.667-6.666,6.667S10,87.012,10,83.333c0-3.685,2.985-6.666,6.667-6.666
	S23.333,79.648,23.333,83.333z"/>
<rect class="c1 cc" x="56.667" y="53.333" width="10" height="6.667"/>
<polygon class="c1 cc" points="33.333,53.333 13.333,53.333 13.333,70 20,70 20,60 33.333,60 "/>
<rect class="c1 cc" x="80" y="30" width="6.667" height="10"/>
<polygon class="c1 cc" points="80,46.667 80,53.333 73.333,53.333 73.333,60 86.667,60 86.667,46.667 "/>
</svg>
