<?xml version="1.0" encoding="utf-8"?>
<!-- Generator: Adobe Illustrator 21.0.0, SVG Export Plug-In . SVG Version: 6.00 Build 0)  -->
<svg version="1.1" id="Layer_1" xmlns="http://www.w3.org/2000/svg" xmlns:xlink="http://www.w3.org/1999/xlink" x="0px" y="0px"
	 viewBox="0 0 64 64" style="enable-background:new 0 0 64 64;" xml:space="preserve">
<style type="text/css">
	.st0{fill:#039BE5;stroke:#0277BD;stroke-linecap:round;stroke-linejoin:round;stroke-miterlimit:10;}
	.st1{fill:#81D4FA;stroke:#0277BD;stroke-linecap:round;stroke-linejoin:round;stroke-miterlimit:10;}
	.st2{fill:#EC407A;stroke:#0277BD;stroke-linecap:round;stroke-linejoin:round;stroke-miterlimit:10;}
	.st3{fill:#FFA726;stroke:#0277BD;stroke-linecap:round;stroke-linejoin:round;stroke-miterlimit:10;}
	.st4{fill:#80CBC4;stroke:#0277BD;stroke-linecap:round;stroke-linejoin:round;stroke-miterlimit:10;}
	.st5{fill:none;stroke:#F48FB1;stroke-linecap:round;stroke-linejoin:round;stroke-miterlimit:10;}
	.st6{fill:none;stroke:#FFCC80;stroke-linecap:round;stroke-linejoin:round;stroke-miterlimit:10;}
	.st7{fill:none;stroke:#E0F2F1;stroke-linecap:round;stroke-linejoin:round;stroke-miterlimit:10;}
	.st8{fill:none;stroke:#26A69A;stroke-linecap:round;stroke-linejoin:round;stroke-miterlimit:10;}
	.st9{fill:none;stroke:#F57C00;stroke-linecap:round;stroke-linejoin:round;stroke-miterlimit:10;}
	.st10{fill:none;stroke:#D81B60;stroke-linecap:round;stroke-linejoin:round;stroke-miterlimit:10;}
	.st11{fill:#EEEEEE;stroke:#0277BD;stroke-linecap:round;stroke-linejoin:round;stroke-miterlimit:10;}
	.st12{fill:none;stroke:#BDBDBD;stroke-linecap:round;stroke-linejoin:round;stroke-miterlimit:10;}
	.st13{fill:none;stroke:#E1F5FE;stroke-linecap:round;stroke-linejoin:round;stroke-miterlimit:10;}
	.st14{fill:none;stroke:#FFFFFF;stroke-linecap:round;stroke-linejoin:round;stroke-miterlimit:10;}
	.st15{fill:none;stroke:#29B6F6;stroke-linecap:round;stroke-linejoin:round;stroke-miterlimit:10;}
	.st16{fill:none;stroke:#4FC3F7;stroke-linecap:round;stroke-linejoin:round;stroke-miterlimit:10;}
	.st17{fill:none;stroke:#0277BD;stroke-linecap:round;stroke-linejoin:round;stroke-miterlimit:10;}
</style>
<g id="Delivery">
	<g>
		<path class="st3" d="M40.5,38.2h-40v-27c0-1.7,1.3-3,3-3h34c1.7,0,3,1.3,3,3V38.2z"/>
		<path class="st6" d="M3.5,10.2h34"/>
		<path class="st9" d="M3.5,36.2h34"/>
		<path class="st1" d="M40.5,38.2h-40v7c0,1.7,1.3,3,3,3h37V38.2z"/>
		<path class="st1" d="M61.5,48.2h-21v-28h13.2c1.1,0,2.1,0.6,2.6,1.6l4.5,8.3c0.4,0.7,0.6,1.6,0.6,2.4V48.2z"/>
		<path class="st11" d="M60.9,30.1l-3.8-6.9H43.5V32h18C61.4,31.4,61.2,30.7,60.9,30.1z"/>
		<line class="st11" x1="48" y1="23.2" x2="48" y2="32"/>
		<path class="st1" d="M57.5,35h-1c-0.6,0-1-0.4-1-1v-4c0-0.6,0.4-1,1-1h1c0.6,0,1,0.4,1,1v4C58.5,34.6,58.1,35,57.5,35z"/>
		<path class="st1" d="M62.5,44.2h-22v4h22c0.6,0,1-0.4,1-1v-2C63.5,44.7,63.1,44.2,62.5,44.2z"/>
		<circle class="st0" cx="51" cy="48.2" r="7.5"/>
		<path class="st17" d="M56.5,48.2c0,3-2.5,5.5-5.5,5.5s-5.5-2.5-5.5-5.5"/>
		<circle class="st11" cx="51" cy="48.2" r="3"/>
		<path class="st11" d="M61.5,41.8h-1c-0.6,0-1-0.4-1-1v-3c0-0.6,0.4-1,1-1h1c0.6,0,1,0.4,1,1v3C62.5,41.3,62.1,41.8,61.5,41.8z"/>
		<path class="st1" d="M35.5,45.2h-2c-0.6,0-1-0.4-1-1v-2c0-0.6,0.4-1,1-1h2c0.6,0,1,0.4,1,1v2C36.5,44.8,36.1,45.2,35.5,45.2z"/>
		<line class="st2" x1="43.5" y1="32" x2="43.5" y2="44.2"/>
		<line class="st2" x1="45.5" y1="34.2" x2="48" y2="34.2"/>
		<rect x="16.8" y="7" transform="matrix(-1.836970e-16 1 -1 -1.836970e-16 47.5 6.5)" class="st2" width="7.5" height="40"/>
		<path class="st15" d="M3.5,46.2h34"/>
		<circle class="st0" cx="15.5" cy="48.2" r="7.5"/>
		<circle class="st11" cx="15.5" cy="48.2" r="3"/>
		<path class="st17" d="M21,48.2c0,3-2.5,5.5-5.5,5.5S10,51.3,10,48.2"/>
	</g>
</g>
</svg>
